<?xml version="1.0" encoding="UTF-8" ?>
<!DOCTYPE svg PUBLIC "-//W3C//DTD SVG 1.1//EN" "http://www.w3.org/Graphics/SVG/1.1/DTD/svg11.dtd">
<svg width="300pt" height="168pt" viewBox="0 0 300 168" version="1.1" xmlns="http://www.w3.org/2000/svg">
<g id="#ffffffff">
</g>
<g id="#0e76b5ff">
<path fill="#0e76b5" opacity="1.00" d=" M 114.21 11.03 C 116.53 12.58 118.34 14.73 120.29 16.70 C 151.49 47.82 182.65 78.99 213.79 110.17 C 214.11 110.62 214.74 111.51 215.06 111.95 C 213.72 112.08 212.37 112.16 211.03 112.19 C 180.35 112.18 149.67 112.16 118.99 112.20 C 117.38 112.18 115.77 112.13 114.18 111.92 C 114.14 78.29 114.09 44.66 114.21 11.03 Z" />
<path fill="#0e76b5" opacity="1.00" d=" M 20.06 31.00 C 27.69 30.40 35.35 30.90 43.00 30.74 C 62.34 30.90 81.72 30.43 101.04 30.97 C 101.42 33.29 101.37 35.66 101.35 38.00 C 101.14 62.39 101.64 86.79 101.10 111.16 C 98.61 110.08 97.03 107.71 95.07 105.92 C 72.58 83.41 49.82 61.18 27.37 38.64 C 24.95 36.08 22.11 33.89 20.06 31.00 Z" />
<path fill="#0e76b5" opacity="1.00" d=" M 153.08 31.05 C 154.71 30.85 156.34 30.74 157.98 30.72 C 194.32 30.76 230.66 30.73 267.00 30.74 C 271.37 30.82 275.75 30.50 280.10 30.96 C 280.54 34.29 280.33 37.65 280.35 41.00 C 280.35 76.00 280.34 111.00 280.35 146.00 C 280.34 149.41 280.49 152.82 280.14 156.21 C 277.25 155.44 275.61 152.46 273.40 150.60 C 235.24 112.76 197.08 74.92 158.91 37.09 C 156.93 35.11 154.84 33.23 153.08 31.05 Z" />
</g>
</svg>
